HIERARCHY
ROOT Hips
{
  OFFSET 0 0 0
  CHANNELS 6 Xposition Yposition Zposition Zrotation Yrotation Xrotation
  JOINT LeftThigh
  {
    OFFSET 8.409438 0 -5.917753
    CHANNELS 3 Zrotation Yrotation Xrotation
    JOINT LeftLeg
    {
      OFFSET 0 0 -42.358652
      CHANNELS 3 Zrotation Yrotation Xrotation
      JOINT LeftFoot
      {
        OFFSET 0 0 -39.357303
        CHANNELS 3 Zrotation Yrotation Xrotation
      }
    }
  }
  JOINT RightThigh
  {
    OFFSET -8.409438 0 -5.917753
    CHANNELS 3 Zrotation Yrotation Xrotation
    JOINT RightLeg
    {
      OFFSET 0 0 -42.358652
      CHANNELS 3 Zrotation Yrotation Xrotation
      JOINT RightFoot
      {
        OFFSET 0 0 -39.357303
        CHANNELS 3 Zrotation Yrotation Xrotation
      }
    }
  }
  JOINT SpineLow
  {
    OFFSET 0 0 4.719101
    CHANNELS 3 Zrotation Yrotation Xrotation
    JOINT SpineMid
    {
      OFFSET 0 0 12.899191
      CHANNELS 3 Zrotation Yrotation Xrotation
      JOINT Chest
      {
        OFFSET 0 0 12.899191
        CHANNELS 3 Zrotation Yrotation Xrotation
        JOINT LeftShoulder
        {
          OFFSET 7.550562 1.41573 9.438202
          CHANNELS 3 Zrotation Yrotation Xrotation
          JOINT LeftArm
          {
            OFFSET 9.155056 0 4.247191
            CHANNELS 3 Zrotation Yrotation Xrotation
            JOINT LeftForearm
            {
              OFFSET 0 0 25.771955
              CHANNELS 3 Zrotation Yrotation Xrotation
              JOINT LeftHand
              {
                OFFSET 0 0 25.197169
                CHANNELS 3 Zrotation Yrotation Xrotation
              }
            }
          }
        }
        JOINT RightShoulder
        {
          OFFSET -7.550562 1.41573 9.438202
          CHANNELS 3 Zrotation Yrotation Xrotation
          JOINT RightArm
          {
            OFFSET -9.155056 0 4.247191
            CHANNELS 3 Zrotation Yrotation Xrotation
            JOINT RightForearm
            {
              OFFSET 0 0 -25.771955
              CHANNELS 3 Zrotation Yrotation Xrotation
              JOINT RightHand
              {
                OFFSET 0 0 -25.197169
                CHANNELS 3 Zrotation Yrotation Xrotation
              }
            }
          }
        }
        JOINT Neck
        {
          OFFSET 0 0 15.101124
          CHANNELS 3 Zrotation Yrotation Xrotation
          JOINT Head
          {
            OFFSET 0 0 11.325843
            CHANNELS 3 Zrotation Yrotation Xrotation
            End Site
            {
              OFFSET 0 0 14.157303
            }
          }
        }
      }
    }
  }
}
MOTION
Frames: 13
Frame Time: 0.0
0.0  89.887642  0.0  17.937351  -61.733239  -119.367109  46.890103  -43.200459  -27.647739  14.667421  37.463836  70.175764  8.553296  10.046035  1.402271  -26.751045  24.067567  -37.023921  32.933967  0.363717  54.290684  -6.111955  -0.749823  1.854534  3.477312  0.581522  1.125555  9.530959  1.423758  3.153241  9.53096  1.423758  3.153241  -24.4377  24.193442  13.264185  -113.099623  44.484414  -105.733548  -44.832645  -4.628808  74.093471  76.589833  2.225889  17.491299  -19.141195  1.622201  25.224093  165.852552  23.198104  63.903019  -39.012537  -13.718019  -62.532513  86.034454  -0.146058  -23.910421  -10.440286  5.756517  22.000287  -8.04391  3.949015  16.59051  
0.0  89.887642  0.0  17.968976  -61.65513  -119.270703  46.730628  -43.203855  -27.631001  14.596898  36.926695  70.00342  8.540401  10.088082  1.515313  -25.606377  24.056911  -36.48349  32.916529  0.203442  54.718998  -6.608781  -0.732204  2.042683  3.525783  0.616541  1.140123  9.66556  1.514734  3.199086  9.665561  1.514734  3.199086  -24.71067  23.899235  13.206008  -113.935233  44.636514  -106.082433  -44.923883  -4.925047  73.942679  76.552737  2.201144  17.769077  -19.423574  1.57244  24.973009  165.950625  22.993487  63.78481  -39.318539  -13.930102  -62.378769  85.718856  -0.196987  -23.909605  -10.745252  5.488884  21.778449  -8.261416  3.740747  16.423954  
0.0  89.887642  0.0  18.036836  -61.594978  -119.147415  46.412509  -43.270836  -27.604921  14.778993  36.417266  69.948717  8.503435  10.148312  1.625966  -24.586147  24.003541  -36.030329  32.534296  0.843402  55.214826  -6.400241  -0.782286  2.159558  3.523899  0.64384  1.157691  9.662242  1.586672  3.250983  9.662242  1.586673  3.250983  -24.690373  23.697657  13.011986  -114.646421  44.761116  -106.298854  -44.797627  -5.449159  73.82701  76.519382  2.126351  18.07451  -19.821653  1.374628  24.575394  165.322948  23.317813  63.482378  -38.393067  -13.962358  -62.676512  85.558493  -0.137984  -24.089055  -10.86618  5.301569  21.486356  -8.342975  3.60075  16.203682  
0.0  89.887642  0.0  17.987236  -61.54491  -118.881286  46.035257  -43.392892  -27.61446  15.196497  35.891161  70.017097  8.31797  10.148594  1.659065  -23.834319  23.768283  -35.717201  32.154969  1.756836  55.751797  -6.10982  -0.894765  2.198937  3.54915  0.669221  1.165203  9.732798  1.653483  3.275801  9.732798  1.653483  3.275801  -24.837633  23.49861  12.831064  -115.104664  44.903642  -106.433727  -44.514772  -5.925936  73.77681  76.561741  2.009187  18.325334  -19.798222  1.218255  24.284423  165.397709  22.968625  63.331  -38.737761  -14.184523  -62.534126  85.376644  -0.033074  -24.10336  -11.023139  5.112835  21.235439  -8.452102  3.457845  16.014478  
0.0  89.887642  0.0  17.921374  -61.51198  -118.5725  45.670092  -43.515865  -27.65571  15.602735  35.490187  69.981767  8.235878  10.156492  1.714891  -23.38241  23.427068  -35.603172  31.973098  2.538695  56.223307  -5.678654  -0.968301  2.183991  3.527512  0.679214  1.15182  9.673892  1.683777  3.24028  9.673891  1.683777  3.24028  -24.653369  23.397789  12.721843  -115.436845  45.116477  -106.410669  -44.232493  -6.439467  73.655198  76.645434  1.870599  18.464132  -19.960561  0.980866  24.108219  165.694776  22.432776  63.233498  -38.938911  -14.277924  -62.450197  85.389904  0.102364  -24.179799  -10.990593  5.030531  21.013411  -8.422875  3.401025  15.846545  
0.0  89.887642  0.0  17.677753  -61.32451  -118.103632  45.231132  -43.597148  -27.670717  15.792127  35.298634  69.707787  8.29794  10.194287  1.764334  -23.417216  23.047226  -35.62091  32.246627  2.883645  56.536013  -5.271031  -1.098932  2.103798  3.51455  0.685104  1.138368  9.638464  1.702444  3.204156  9.638464  1.702444  3.204156  -24.654287  23.326767  12.621313  -115.602826  45.413091  -106.32219  -43.980814  -6.801834  73.583893  76.686746  1.777211  18.521685  -19.821651  0.88684  23.957731  165.722633  22.102651  63.074097  -39.220397  -14.250898  -62.349391  85.402347  0.213868  -24.176069  -11.047103  4.961238  20.799484  -8.461047  3.350805  15.685688  
0.0  89.887642  0.0  17.801365  -61.265632  -118.059389  44.946932  -43.658536  -27.490764  16.04115  35.043374  69.50179  8.269407  10.202728  1.774901  -23.339733  22.854514  -35.532948  32.573914  2.819367  56.675297  -4.804785  -1.105653  1.844878  3.503805  0.6863  1.129682  9.608953  1.707497  3.180386  9.608952  1.707497  3.180386  -24.46209  23.377307  12.590412  -115.687919  45.759729  -106.089694  -43.838922  -7.074452  73.466609  76.670484  1.76085  18.4815  -19.849505  0.744617  23.923334  165.437566  22.012201  62.799633  -39.247502  -14.108678  -62.323033  85.641975  0.32941  -23.998553  -10.97793  4.989975  20.571215  -8.407927  3.378755  15.514298  
0.0  89.887642  0.0  17.53977  -60.952909  -117.657387  44.438563  -43.691528  -27.33484  16.272046  34.805842  69.241572  8.281369  10.218483  1.826682  -23.374329  22.681411  -35.400644  33.020207  2.438902  56.773159  -4.844928  -1.160126  1.739491  3.507128  0.679963  1.12202  9.617519  1.691175  3.158637  9.617518  1.691175  3.158637  -24.654197  23.414149  12.582632  -115.673468  46.111654  -105.87747  -43.804874  -7.11106  73.465836  76.661969  1.837921  18.365912  -19.9343  0.698998  23.901579  165.480183  21.736423  62.753436  -39.404735  -13.961434  -62.256253  85.656909  0.440504  -23.907877  -11.102525  4.961007  20.283002  -8.497846  3.357941  15.298931  
0.0  89.887642  0.0  17.495532  -60.706304  -117.47654  44.058271  -43.644052  -27.117336  16.285846  34.565332  68.853845  8.330712  10.36742  1.933437  -23.223397  22.666645  -35.165017  33.3611  2.012377  56.773474  -5.048353  -1.089604  1.648897  3.492584  0.673712  1.11917  9.577371  1.675258  3.149604  9.577372  1.675258  3.149605  -24.630184  23.520639  12.584143  -115.601363  46.49914  -105.659401  -43.920654  -6.92501  73.55486  76.727546  2.058234  18.210626  -20.083514  0.638616  23.917771  165.397815  21.600519  62.572856  -39.288995  -13.680503  -62.167482  85.722224  0.540854  -23.838316  -11.078275  4.959338  19.905157  -8.476102  3.364197  15.015372  
0.0  89.887642  0.0  17.311318  -60.363527  -117.208566  43.773758  -43.574983  -27.003053  16.346911  34.320686  68.636144  8.227308  10.399683  1.95683  -22.871137  22.79159  -34.791633  33.287666  1.830389  56.8088  -5.346956  -1.081351  1.637753  3.493235  0.664932  1.123205  9.578782  1.650706  3.15934  9.578782  1.650706  3.15934  -24.768663  23.553868  12.616886  -115.469024  46.936068  -105.486058  -44.124402  -6.478835  73.753341  76.859357  2.487457  18.057925  -20.187145  0.682882  23.937442  165.411976  21.446383  62.628228  -39.282932  -13.671644  -62.127168  85.704715  0.698031  -23.729405  -11.139571  4.877352  19.45628  -8.515504  3.30863  14.678157  
0.0  89.887642  0.0  17.56322  -60.2731  -117.365922  43.887866  -43.434075  -26.869961  16.136931  34.255579  68.240705  8.285319  10.502637  2.085488  -22.118958  23.079918  -34.332993  32.970311  1.966519  56.732994  -5.384129  -1.141521  1.691872  3.500458  0.654257  1.123548  9.597972  1.621204  3.158878  9.597972  1.621204  3.158878  -24.728957  23.60469  12.669898  -115.094406  47.393891  -105.360534  -44.328868  -5.789516  74.004935  77.062867  3.125993  17.97253  -20.219893  0.788595  23.992632  165.439432  21.231126  62.60657  -39.432083  -13.765532  -61.976336  85.824845  0.842037  -23.689163  -11.022661  4.817128  18.973749  -8.421641  3.275623  14.314407  
0.0  89.887642  0.0  17.478192  -60.005397  -117.159046  44.076183  -43.209056  -26.99226  15.896915  34.233366  67.964  8.284927  10.503217  2.135431  -21.72142  23.283777  -33.956804  32.586533  2.225971  56.574267  -5.371398  -1.155946  1.79295  3.536148  0.633152  1.102522  9.693954  1.565022  3.099222  9.693955  1.565022  3.099222  -25.034592  23.724812  12.719507  -114.299052  48.087805  -104.979909  -44.445238  -4.885091  74.292967  77.443535  4.011742  18.022134  -20.466069  0.970172  24.080829  165.243031  21.124222  62.609972  -39.311442  -13.905897  -61.974626  85.752984  1.027607  -23.656368  -11.125213  4.652326  18.516265  -8.489814  3.156826  13.969818  
0.0  89.887642  0.0  17.44595  -59.757495  -116.971189  44.417251  -42.940914  -27.187925  15.661813  34.261565  67.715716  8.294615  10.457083  2.196637  -21.412126  23.471845  -33.621556  32.289716  2.497259  56.323975  -5.275651  -1.199703  1.884633  3.569834  0.605611  1.066309  9.783863  1.493701  2.997096  9.783863  1.493701  2.997096  -25.391824  23.931597  12.793987  -112.946048  48.795798  -104.285213  -44.361318  -3.922965  74.630243  78.111625  5.137558  18.304217  -20.777962  1.14467  24.176042  164.918936  20.880104  62.450425  -39.830729  -13.961202  -61.661516  85.955385  1.311531  -24.169539  -11.202052  4.458293  18.064293  -8.538174  3.016899  13.628595  
